# Blender v2.92.0 OBJ File: ''
# www.blender.org
mtllib blueprintApartamento.mtl
o Plane
v -3.405367 0.000000 5.950438
v 16.327700 0.000000 5.950438
v -3.405367 0.000000 -7.413344
v 16.327700 0.000000 -7.413344
v -3.405367 0.000000 30.138458
v 16.327700 0.000000 30.138458
v -3.405367 0.000000 16.774677
v 16.327700 0.000000 16.774677
v 6.023205 0.000000 16.533834
v 16.221746 0.000000 16.533834
v 6.023205 0.000000 6.233187
v 16.221746 0.000000 6.233187
v -17.544188 0.000000 30.199863
v -3.720963 0.000000 30.199863
v -17.544188 0.000000 -7.413345
v -3.720963 0.000000 -7.413345
v -17.544188 0.000000 20.016150
v -3.720963 0.000000 20.016150
v -28.415352 0.000000 30.199863
v -28.415352 0.000000 20.016150
v -3.720963 0.000000 6.263524
v -17.544188 0.000000 6.263524
v -17.544188 0.000000 16.602312
v -3.720963 0.000000 16.602312
v 5.811426 0.000000 6.263524
v 5.811426 0.000000 16.602312
v -28.517937 0.000000 19.699152
v -17.913696 0.000000 19.699152
v -28.517937 0.000000 -7.413345
v -17.913696 0.000000 -7.413345
v -17.544188 0.000000 -7.838725
v -3.720963 0.000000 -7.838725
v -17.544188 0.000000 -13.477031
v -3.720963 0.000000 -13.477031
v -83.174774 0.000000 40.704937
v -28.925282 0.000000 40.704937
v -83.174774 0.000000 20.044186
v -28.925282 0.000000 20.044186
v -94.092812 0.000000 40.704937
v -94.092812 0.000000 20.044186
v -83.174774 0.000000 51.739799
v -94.092812 0.000000 51.739799
v -0.526451 0.000000 6.345152
v 2.272319 0.000000 6.345152
v -0.526451 0.000000 5.818030
v 2.272319 0.000000 5.818030
v -0.526451 0.000000 16.942041
v 2.272319 0.000000 16.942041
v -0.526451 0.000000 16.414919
v 2.272319 0.000000 16.414919
v 6.219715 0.000000 12.645209
v 6.219714 0.000000 9.846438
v 5.692592 0.000000 12.645209
v 5.692592 0.000000 9.846438
v -13.997675 0.000000 -7.343174
v -6.940882 0.000000 -7.343174
v -13.997675 0.000000 -7.870297
v -6.940882 0.000000 -7.870297
v -26.471382 0.000000 20.084787
v -19.727207 0.000000 20.084787
v -26.471382 0.000000 19.557663
v -19.727207 0.000000 19.557663
v -28.417450 0.000000 26.519844
v -28.417450 0.000000 23.721073
v -28.944572 0.000000 26.519844
v -28.944572 0.000000 23.721073
vt 0.000000 0.000000
vt 1.000000 0.000000
vt 1.000000 1.000000
vt 0.000000 1.000000
vt 0.000000 0.000000
vt 1.000000 0.000000
vt 1.000000 1.000000
vt 0.000000 1.000000
vt 0.000000 0.000000
vt 1.000000 0.000000
vt 1.000000 1.000000
vt 0.000000 1.000000
vt 0.000000 0.636381
vt 1.000000 0.636381
vt 1.000000 1.000000
vt 0.000000 1.000000
vt 0.000000 0.000000
vt 1.000000 0.000000
vt 1.000000 0.270748
vt 0.000000 0.270748
vt 0.000000 0.270748
vt 0.000000 0.000000
vt 0.000000 0.361510
vt 1.000000 0.361510
vt 1.000000 0.361510
vt 1.000000 0.636381
vt 0.000000 0.000000
vt 1.000000 0.000000
vt 1.000000 1.000000
vt 0.000000 1.000000
vt 0.000000 0.000000
vt 1.000000 0.000000
vt 1.000000 1.000000
vt 0.000000 1.000000
vt 0.000000 0.000000
vt 1.000000 0.000000
vt 1.000000 1.000000
vt 0.000000 1.000000
vt 0.000000 1.000000
vt 0.000000 0.000000
vt 0.000000 0.000000
vt 0.000000 0.000000
vt 0.000000 0.000000
vt 1.000000 0.000000
vt 1.000000 1.000000
vt 0.000000 1.000000
vt 0.000000 0.000000
vt 1.000000 0.000000
vt 1.000000 1.000000
vt 0.000000 1.000000
vt 0.000000 0.000000
vt 1.000000 0.000000
vt 1.000000 1.000000
vt 0.000000 1.000000
vt 0.000000 0.000000
vt 1.000000 0.000000
vt 1.000000 1.000000
vt 0.000000 1.000000
vt 0.000000 0.000000
vt 1.000000 0.000000
vt 1.000000 1.000000
vt 0.000000 1.000000
vt 0.000000 0.000000
vt 1.000000 0.000000
vt 1.000000 1.000000
vt 0.000000 1.000000
vn 0.0000 1.0000 0.0000
usemtl None
s off
f 1/1/1 2/2/1 4/3/1 3/4/1
f 5/5/1 6/6/1 8/7/1 7/8/1
f 9/9/1 10/10/1 12/11/1 11/12/1
f 22/13/1 21/14/1 16/15/1 15/16/1
f 13/17/1 14/18/1 18/19/1 17/20/1
f 13/17/1 17/20/1 20/21/1 19/22/1
f 23/23/1 24/24/1 21/14/1 22/13/1
f 17/20/1 18/19/1 24/24/1 23/23/1
f 21/14/1 24/24/1 26/25/1 25/26/1
f 27/27/1 28/28/1 30/29/1 29/30/1
f 31/31/1 32/32/1 34/33/1 33/34/1
f 35/35/1 36/36/1 38/37/1 37/38/1
f 35/35/1 37/38/1 40/39/1 39/40/1
f 35/35/1 39/40/1 42/41/1 41/42/1
f 43/43/1 44/44/1 46/45/1 45/46/1
f 47/47/1 48/48/1 50/49/1 49/50/1
f 51/51/1 52/52/1 54/53/1 53/54/1
f 55/55/1 56/56/1 58/57/1 57/58/1
f 59/59/1 60/60/1 62/61/1 61/62/1
f 63/63/1 64/64/1 66/65/1 65/66/1
