# Blender v2.81 (sub 16) OBJ File: 'ApartamentoObjSeparados.blend'
# www.blender.org
mtllib chao.mtl
o Cube
v -17.545254 -0.000164 6.327282
v -17.545254 0.049952 6.327282
v -17.545254 -0.000164 -7.422560
v -17.545254 0.049952 -7.422560
v -3.719111 -0.000164 6.327282
v -3.719111 0.049952 6.327282
v -3.719111 -0.000164 -7.422560
v -3.719111 0.049952 -7.422560
v -17.545254 -0.000164 16.601484
v -17.545254 0.049952 16.601484
v -3.719111 0.049952 16.601484
v -3.719111 -0.000164 16.601484
v -17.545254 -0.000164 20.012314
v -17.545254 0.049952 20.012314
v -3.719111 0.049952 20.012314
v -3.719111 -0.000164 20.012314
v -17.545254 -0.000164 30.196587
v -17.545254 0.049952 30.196587
v -3.719111 0.049952 30.196587
v -3.719111 -0.000164 30.196587
v -28.411800 -0.000164 20.012314
v -28.411800 0.049952 20.012314
v -28.411800 -0.000164 30.196587
v -28.411800 0.049952 30.196587
v 5.844629 0.049952 6.327282
v 5.844629 -0.000164 6.327282
v 5.844629 0.049952 16.601484
v 5.844629 -0.000164 16.601484
vt 0.004925 0.811680
vt 0.000000 0.811680
vt 0.000000 0.622468
vt 0.004925 0.622468
vt 0.009849 0.873700
vt 0.004925 0.873700
vt 0.004925 0.622468
vt 0.009849 0.622468
vt 0.019698 0.811680
vt 0.014774 0.811680
vt 0.014774 0.622468
vt 0.019698 0.622468
vt 0.181851 0.448687
vt 0.181851 0.197454
vt 0.317734 0.197454
vt 0.317734 0.448687
vt 0.497538 0.425014
vt 0.497538 0.173781
vt 0.679388 0.173781
vt 0.679388 0.425014
vt 0.000000 0.448687
vt 0.000000 0.197454
vt 0.362844 0.197454
vt 0.362844 0.448687
vt 0.034472 0.796249
vt 0.029548 0.796249
vt 0.029548 0.622468
vt 0.034472 0.622468
vt 0.004925 0.953063
vt 0.000000 0.953063
vt 0.815271 0.173781
vt 0.815271 0.425013
vt 0.860382 0.425013
vt 0.860382 0.173781
vt 0.995075 0.173781
vt 0.995075 0.425013
vt 0.024623 0.809550
vt 0.019698 0.809550
vt 0.019698 0.762614
vt 0.024623 0.762614
vt 0.004925 1.000000
vt 0.000000 1.000000
vt 0.995075 0.000000
vt 1.000000 0.000000
vt 1.000000 0.251232
vt 0.995075 0.251232
vt 0.995075 0.622468
vt 0.860382 0.622468
vt 0.497538 0.197454
vt 0.497538 0.448687
vt 0.019698 0.622468
vt 0.024623 0.622468
vt 0.039397 0.622468
vt 0.044321 0.622468
vt 0.044321 0.762614
vt 0.039397 0.762614
vt 0.009849 0.622468
vt 0.014774 0.622468
vt 0.014774 0.819922
vt 0.009849 0.819922
vt 0.362844 0.000000
vt 0.497538 0.000000
vt 1.000000 0.448687
vt 0.995075 0.448687
vt 0.039397 0.763851
vt 0.034472 0.763851
vt 0.039397 0.622468
vt 0.029548 0.796249
vt 0.024623 0.796249
vt 0.024623 0.622468
vt 0.029548 0.622468
vt 0.679388 0.000000
vt 0.815271 0.000000
vt 0.317734 0.622468
vt 0.181851 0.622468
vn -1.0000 0.0000 0.0000
vn 0.0000 0.0000 -1.0000
vn 1.0000 0.0000 0.0000
vn 0.0000 1.0000 0.0000
vn 0.0000 -1.0000 0.0000
vn 0.0000 0.0000 1.0000
usemtl None
s off
f 1/1/1 2/2/1 4/3/1 3/4/1
f 3/5/2 4/6/2 8/7/2 7/8/2
f 7/9/3 8/10/3 6/11/3 5/12/3
f 6/13/4 2/14/4 10/15/4 11/16/4
f 3/17/5 7/18/5 5/19/5 1/20/5
f 8/21/4 4/22/4 2/14/4 6/13/4
f 11/16/4 10/15/4 14/23/4 15/24/4
f 11/25/6 12/26/6 28/27/6 27/28/6
f 2/2/1 1/1/1 9/29/1 10/30/1
f 1/20/5 5/19/5 12/31/5 9/32/5
f 13/33/5 16/34/5 20/35/5 17/36/5
f 12/37/3 11/38/3 15/39/3 16/40/3
f 9/32/5 12/31/5 16/34/5 13/33/5
f 10/30/1 9/29/1 13/41/1 14/42/1
f 20/43/6 19/44/6 18/45/6 17/46/6
f 13/33/5 17/36/5 23/47/5 21/48/5
f 15/24/4 14/23/4 18/49/4 19/50/4
f 16/40/3 15/39/3 19/51/3 20/52/3
f 22/53/1 21/54/1 23/55/1 24/56/1
f 14/57/2 13/58/2 21/59/2 22/60/2
f 18/49/4 14/23/4 22/61/4 24/62/4
f 17/46/6 18/45/6 24/63/6 23/64/6
f 26/65/3 25/66/3 27/28/3 28/67/3
f 5/68/2 6/69/2 25/70/2 26/71/2
f 12/31/5 5/19/5 26/72/5 28/73/5
f 6/13/4 11/16/4 27/74/4 25/75/4
